<svg xmlns="http://www.w3.org/2000/svg" viewBox="0 0 100 90" fill="none">
  <defs>
    <linearGradient id="heartGradientFill" x1="8" y1="8" x2="92" y2="82" gradientUnits="userSpaceOnUse">
      <stop offset="0%" stop-color="#f3b6cf" />
      <stop offset="45%" stop-color="#f6e3d6" />
      <stop offset="72%" stop-color="#d9e8c8" />
      <stop offset="100%" stop-color="#a8c4a2" />
    </linearGradient>
    <radialGradient id="heartGradientSheen" cx="50%" cy="50%" r="50%">
      <stop offset="0%" stop-color="#ffffff" stop-opacity="0.6" />
      <stop offset="70%" stop-color="#ffffff" stop-opacity="0.12" />
      <stop offset="100%" stop-color="#ffffff" stop-opacity="0" />
    </radialGradient>
    <clipPath id="heartClip">
      <path d="M50 84 C 22 62, 4 42, 4 24 C 4 9, 16 0, 29 0 C 39 0, 47 6, 50 15 C 53 6, 61 0, 71 0 C 84 0, 96 9, 96 24 C 96 42, 78 62, 50 84 Z" />
    </clipPath>
  </defs>
  <path d="M50 84 C 22 62, 4 42, 4 24 C 4 9, 16 0, 29 0 C 39 0, 47 6, 50 15 C 53 6, 61 0, 71 0 C 84 0, 96 9, 96 24 C 96 42, 78 62, 50 84 Z" fill="url(#heartGradientFill)" />
  <ellipse cx="28" cy="26" rx="22" ry="30" fill="url(#heartGradientSheen)" clip-path="url(#heartClip)" transform="rotate(28 28 26)" />
</svg>
